<?xml version="1.0" encoding="utf-8"?>
<!-- Generator: Adobe Illustrator 24.0.2, SVG Export Plug-In . SVG Version: 6.00 Build 0)  -->
<svg version="1.1" id="Layer_1" xmlns="http://www.w3.org/2000/svg" xmlns:xlink="http://www.w3.org/1999/xlink" x="0px" y="0px"
	 viewBox="0 0 523.2 134.8" style="enable-background:new 0 0 523.2 134.8;" xml:space="preserve">
<style type="text/css">
	.st0{fill:#FFFFFF;}
	.st1{fill:#003CFF;}
	.st2{fill:none;stroke:#FF00D4;stroke-width:8;stroke-miterlimit:10;}
</style>
<g>
	<path class="st0" d="M244.3,52.8h4.9c0.6,0,1,0.3,1,1v46.6c0,0.6-0.3,1-1,1h-4.9c-0.6,0-1-0.3-1-1v-4.1c0-0.1-0.1-0.2-0.2-0.3
		c-0.1-0.1-0.2,0-0.3,0.1c-2.7,4-6.9,5.9-12.8,5.9c-3.1,0-5.9-0.6-8.5-1.9c-2.6-1.2-4.6-3.1-6.1-5.4c-1.5-2.4-2.3-5.2-2.3-8.5V53.8
		c0-0.6,0.3-1,1-1h4.9c0.6,0,1,0.3,1,1v30.4c0,3.6,1,6.5,3.1,8.7c2,2.1,4.8,3.2,8.3,3.2c3.6,0,6.5-1.1,8.7-3.3
		c2.1-2.2,3.2-5,3.2-8.6V53.8C243.3,53.1,243.6,52.8,244.3,52.8z"/>
</g>
<path class="st1" d="M76.8,34c0.2,0.2,0.3,0.5,0.3,0.8v9.4c0,0.3-0.1,0.6-0.3,0.8c-0.2,0.2-0.5,0.3-0.8,0.3H58.9
	c-0.3,0-0.5,0.2-0.5,0.5v53.8c0,0.3-0.1,0.6-0.3,0.8c-0.2,0.2-0.5,0.3-0.8,0.3H46c-0.3,0-0.6-0.1-0.8-0.3c-0.2-0.2-0.3-0.5-0.3-0.8
	V45.8c0-0.3-0.2-0.5-0.5-0.5H27.7c-0.3,0-0.6-0.1-0.8-0.3s-0.3-0.5-0.3-0.8v-9.4c0-0.3,0.1-0.6,0.3-0.8s0.5-0.3,0.8-0.3H76
	C76.3,33.6,76.6,33.7,76.8,34z"/>
<path class="st1" d="M86.2,99.8c-3.1-1.5-5.6-3.6-7.4-6.3s-2.7-5.8-2.7-9.3V69.1c0-3.4,0.9-6.5,2.7-9.2c1.7-2.6,4.2-4.8,7.4-6.2
	s6.8-2.2,10.9-2.2s7.9,0.7,11,2.2s5.6,3.5,7.4,6.2c1.7,2.6,2.7,5.7,2.7,9.2v15c0,3.5-0.9,6.6-2.7,9.4c-1.7,2.8-4.2,4.8-7.4,6.3
	s-6.8,2.2-11,2.2C93,102,89.4,101.3,86.2,99.8z M104.2,91.1c1.8-1.6,2.7-3.8,2.7-6.5V69.1c0-2.7-0.9-4.9-2.7-6.6
	c-1.7-1.7-4.1-2.5-7.1-2.5c-2.9,0-5.2,0.8-7,2.5c-1.7,1.7-2.7,3.9-2.7,6.6v15.4c0,2.7,0.9,4.9,2.7,6.5c1.7,1.6,4.1,2.5,7,2.5
	C100,93.5,102.4,92.7,104.2,91.1z"/>
<path class="st0" d="M157.2,53c0.5,0.3,0.7,0.7,0.6,1.2l-1.1,4.7c-0.2,0.6-0.6,0.8-1.2,0.6c-1.1-0.4-2.3-0.7-3.7-0.7l-1.2,0.1
	c-3.3,0.1-6.1,1.4-8.2,3.7c-2.2,2.3-3.3,5.3-3.3,8.9v28.3c0,0.6-0.3,1-1,1h-4.9c-0.6,0-1-0.3-1-1V53.2c0-0.6,0.3-1,1-1h4.9
	c0.6,0,1,0.3,1,1v5.9c0,0.2,0,0.3,0.1,0.3s0.2,0,0.2-0.1c1.3-2.4,3.1-4.2,5.1-5.5c2.1-1.3,4.5-2,7.2-2
	C153.9,51.8,155.7,52.2,157.2,53z"/>
<path class="st0" d="M197,55.9c3.1,2.9,4.7,6.8,4.7,11.7v32.2c0,0.6-0.3,1-1,1h-4.9c-0.6,0-1-0.3-1-1v-3.9c0-0.1,0-0.2-0.1-0.3
	c-0.1-0.1-0.2,0-0.3,0.1c-1.6,1.9-3.7,3.4-6.2,4.4c-2.6,1-5.4,1.5-8.5,1.5c-4.5,0-8.3-1.2-11.4-3.5c-3.1-2.3-4.6-5.8-4.6-10.5
	c0-4.8,1.7-8.6,5.2-11.4s8.3-4.2,14.5-4.2h11.1c0.3,0,0.4-0.1,0.4-0.4V68c0-3.3-0.9-5.8-2.7-7.7s-4.7-2.8-8.5-2.8
	c-3.1,0-5.6,0.6-7.5,1.8s-3.1,2.8-3.5,4.9c-0.2,0.6-0.6,0.9-1.2,0.9l-5.2-0.7c-0.7-0.1-1-0.4-0.9-0.8c0.5-3.6,2.4-6.5,5.8-8.7
	c3.3-2.2,7.5-3.4,12.5-3.4C189.4,51.5,193.9,52.9,197,55.9z M190.8,92.9c2.7-1.9,4.1-4.4,4.1-7.6v-7.5c0-0.3-0.1-0.4-0.4-0.4h-10.1
	c-4.2,0-7.6,0.9-10.2,2.6c-2.6,1.7-3.8,4.1-3.8,7.2c0,2.8,1,4.9,2.9,6.4c1.9,1.4,4.5,2.2,7.6,2.2C184.8,95.7,188,94.7,190.8,92.9z"
	/>
<path class="st0" d="M294.8,56.6c3,3,4.6,7,4.6,12.1v31.6c0,0.6-0.3,1-1,1h-4.9c-0.6,0-1-0.3-1-1V70c0-3.5-1.1-6.4-3.2-8.6
	c-2.1-2.2-4.9-3.4-8.3-3.4c-3.5,0-6.4,1.1-8.5,3.3c-2.2,2.2-3.3,5-3.3,8.5v30.5c0,0.6-0.3,1-1,1h-4.9c-0.6,0-1-0.3-1-1V53.7
	c0-0.6,0.3-1,1-1h4.9c0.6,0,1,0.3,1,1v4.1c0,0.1,0,0.2,0.1,0.3s0.2,0,0.2-0.1c2.8-4,7.1-5.9,12.9-5.9
	C287.7,52.1,291.7,53.6,294.8,56.6z"/>
<path class="st0" d="M334.9,58.4h-10.8c-0.3,0-0.4,0.1-0.4,0.4v28.3c0,3.1,0.7,5.2,2.1,6.5c1.4,1.2,3.5,1.9,6.5,1.9h2.4
	c0.6,0,1,0.3,1,1v3.9c0,0.6-0.3,1-1,1c-0.8,0.1-2,0.1-3.5,0.1c-4.6,0-8.1-0.9-10.5-2.6s-3.5-4.9-3.5-9.6V58.8c0-0.3-0.1-0.4-0.4-0.4
	h-5.9c-0.6,0-1-0.3-1-1v-3.7c0-0.6,0.3-1,1-1h5.9c0.3,0,0.4-0.1,0.4-0.4V41.2c0-0.6,0.3-1,1-1h4.7c0.6,0,1,0.3,1,1v11.1
	c0,0.3,0.1,0.4,0.4,0.4h10.8c0.6,0,1,0.3,1,1v3.7C335.9,58.1,335.5,58.4,334.9,58.4z"/>
<path class="st0" d="M390.3,60H380c-0.3,0-0.4,0.1-0.4,0.4v25.4c0,2.7,0.6,4.6,1.8,5.8c1.2,1.2,3.1,1.8,5.7,1.8h2.8c0.6,0,1,0.3,1,1
	v5.9c0,0.6-0.3,1-1,1c-2,0.1-3.5,0.2-4.4,0.2c-4.9,0-8.5-0.9-11-2.6c-2.5-1.8-3.7-5-3.7-9.7V60.4c0-0.3-0.1-0.4-0.4-0.4h-5.8
	c-0.6,0-1-0.3-1-1v-5.7c0-0.6,0.3-1,1-1h5.8c0.3,0,0.4-0.1,0.4-0.4V40.8c0-0.6,0.3-1,1-1h6.9c0.6,0,1,0.3,1,1v11.3
	c0,0.3,0.1,0.4,0.4,0.4h10.4c0.6,0,1,0.3,1,1v5.7C391.3,59.7,391,60,390.3,60z"/>
<path class="st1" d="M403.8,43.1c-1.2-1.2-1.7-2.6-1.7-4.4c0-1.8,0.6-3.3,1.7-4.4c1.2-1.2,2.6-1.7,4.4-1.7s3.3,0.6,4.4,1.7
	c1.2,1.2,1.7,2.6,1.7,4.4c0,1.8-0.6,3.3-1.7,4.4c-1.2,1.2-2.6,1.7-4.4,1.7S404.9,44.2,403.8,43.1z"/>
<path class="st0" d="M403.4,100.2V53.4c0-0.6,0.3-1,1-1h7.3c0.6,0,1,0.3,1,1v46.8c0,0.6-0.3,1-1,1h-7.3
	C403.7,101.2,403.4,100.9,403.4,100.2z"/>
<path class="st0" d="M461.3,56.3c3.1,3,4.6,7.1,4.6,12.3v31.6c0,0.6-0.3,1-1,1h-7.3c-0.6,0-1-0.3-1-1V70.5c0-3.2-0.9-5.8-2.8-7.8
	c-1.9-2-4.3-3-7.4-3c-3,0-5.5,1-7.4,3c-1.9,2-2.9,4.5-2.9,7.7v29.9c0,0.6-0.3,1-1,1H428c-0.6,0-1-0.3-1-1V53.4c0-0.6,0.3-1,1-1h7.3
	c0.6,0,1,0.3,1,1v3.5c0,0.1,0,0.2,0.1,0.3s0.2,0,0.2-0.1c2.7-3.5,6.8-5.3,12.2-5.3C454.1,51.8,458.2,53.3,461.3,56.3z"/>
<path class="st1" d="M480.2,43.1c-1.2-1.2-1.7-2.6-1.7-4.4c0-1.8,0.6-3.3,1.7-4.4c1.2-1.2,2.6-1.7,4.4-1.7s3.3,0.6,4.4,1.7
	c1.2,1.2,1.7,2.6,1.7,4.4c0,1.8-0.6,3.3-1.7,4.4c-1.2,1.2-2.6,1.7-4.4,1.7S481.4,44.2,480.2,43.1z"/>
<path class="st0" d="M479.8,100.2V53.4c0-0.6,0.3-1,1-1h7.3c0.6,0,1,0.3,1,1v46.8c0,0.6-0.3,1-1,1h-7.3
	C480.1,101.2,479.8,100.9,479.8,100.2z"/>
<rect x="351.9" y="16.9" class="st2" width="154.6" height="100"/>
</svg>
