<?xml version="1.0" encoding="utf-8"?>
<!-- Generator: Adobe Illustrator 24.0.2, SVG Export Plug-In . SVG Version: 6.00 Build 0)  -->
<svg version="1.1" id="Layer_1" xmlns="http://www.w3.org/2000/svg" xmlns:xlink="http://www.w3.org/1999/xlink" x="0px" y="0px"
	 viewBox="0 0 486.2 110.6" style="enable-background:new 0 0 486.2 110.6;" xml:space="preserve">
<style type="text/css">
	.st0{fill:#FFFFFF;}
	.st1{fill:#003CFF;}
	.st2{fill:none;stroke:#FF00D4;stroke-width:8;stroke-miterlimit:10;}
</style>
<g>
	<path class="st0" d="M219,41.5h4.9c0.6,0,1,0.3,1,1v46.6c0,0.6-0.3,1-1,1H219c-0.6,0-1-0.3-1-1V85c0-0.1-0.1-0.2-0.2-0.3
		c-0.1-0.1-0.2,0-0.3,0.1c-2.7,4-6.9,5.9-12.8,5.9c-3.1,0-5.9-0.6-8.5-1.9c-2.6-1.2-4.6-3.1-6.1-5.4c-1.5-2.4-2.3-5.2-2.3-8.5V42.5
		c0-0.6,0.3-1,1-1h4.9c0.6,0,1,0.3,1,1v30.4c0,3.6,1,6.5,3.1,8.7c2,2.1,4.8,3.2,8.3,3.2c3.6,0,6.5-1.1,8.7-3.3
		c2.1-2.2,3.2-5,3.2-8.6V42.5C218,41.8,218.3,41.5,219,41.5z"/>
</g>
<path class="st1" d="M51.5,22.7c0.2,0.2,0.3,0.5,0.3,0.8v9.4c0,0.3-0.1,0.6-0.3,0.8C51.3,33.9,51,34,50.7,34H33.6
	c-0.3,0-0.5,0.2-0.5,0.5v53.8c0,0.3-0.1,0.6-0.3,0.8c-0.2,0.2-0.5,0.3-0.8,0.3H20.7c-0.3,0-0.6-0.1-0.8-0.3
	c-0.2-0.2-0.3-0.5-0.3-0.8V34.5c0-0.3-0.2-0.5-0.5-0.5H2.4c-0.3,0-0.6-0.1-0.8-0.3s-0.3-0.5-0.3-0.8v-9.4c0-0.3,0.1-0.6,0.3-0.8
	s0.5-0.3,0.8-0.3h48.3C51,22.3,51.3,22.4,51.5,22.7z"/>
<path class="st1" d="M60.9,88.5c-3.1-1.5-5.6-3.6-7.4-6.3s-2.7-5.8-2.7-9.3V57.8c0-3.4,0.9-6.5,2.7-9.2c1.7-2.6,4.2-4.8,7.4-6.2
	s6.8-2.2,10.9-2.2s7.9,0.7,11,2.2s5.6,3.5,7.4,6.2c1.7,2.6,2.7,5.7,2.7,9.2v15c0,3.5-0.9,6.6-2.7,9.4C88.5,85,86,87,82.8,88.5
	s-6.8,2.2-11,2.2C67.7,90.7,64.1,90,60.9,88.5z M78.9,79.8c1.8-1.6,2.7-3.8,2.7-6.5V57.8c0-2.7-0.9-4.9-2.7-6.6
	c-1.7-1.7-4.1-2.5-7.1-2.5c-2.9,0-5.2,0.8-7,2.5c-1.7,1.7-2.7,3.9-2.7,6.6v15.4c0,2.7,0.9,4.9,2.7,6.5c1.7,1.6,4.1,2.5,7,2.5
	S77.1,81.4,78.9,79.8z"/>
<path class="st0" d="M131.9,41.7c0.5,0.3,0.7,0.7,0.6,1.2l-1.1,4.7c-0.2,0.6-0.6,0.8-1.2,0.6c-1.1-0.4-2.3-0.7-3.7-0.7l-1.2,0.1
	c-3.3,0.1-6.1,1.4-8.2,3.7c-2.2,2.3-3.3,5.3-3.3,8.9v28.3c0,0.6-0.3,1-1,1h-4.9c-0.6,0-1-0.3-1-1V41.9c0-0.6,0.3-1,1-1h4.9
	c0.6,0,1,0.3,1,1v5.9c0,0.2,0,0.3,0.1,0.3s0.2,0,0.2-0.1c1.3-2.4,3.1-4.2,5.1-5.5c2.1-1.3,4.5-2,7.2-2
	C128.6,40.5,130.4,40.9,131.9,41.7z"/>
<path class="st0" d="M171.7,44.6c3.1,2.9,4.7,6.8,4.7,11.7v32.2c0,0.6-0.3,1-1,1h-4.9c-0.6,0-1-0.3-1-1v-3.9c0-0.1,0-0.2-0.1-0.3
	c-0.1-0.1-0.2,0-0.3,0.1c-1.6,1.9-3.7,3.4-6.2,4.4c-2.6,1-5.4,1.5-8.5,1.5c-4.5,0-8.3-1.2-11.4-3.5c-3.1-2.3-4.6-5.8-4.6-10.5
	c0-4.8,1.7-8.6,5.2-11.4c3.5-2.8,8.3-4.2,14.5-4.2h11.1c0.3,0,0.4-0.1,0.4-0.4v-3.6c0-3.3-0.9-5.8-2.7-7.7s-4.7-2.8-8.5-2.8
	c-3.1,0-5.6,0.6-7.5,1.8s-3.1,2.8-3.5,4.9c-0.2,0.6-0.6,0.9-1.2,0.9l-5.2-0.7c-0.7-0.1-1-0.4-0.9-0.8c0.5-3.6,2.4-6.5,5.8-8.7
	c3.3-2.2,7.5-3.4,12.5-3.4C164.1,40.2,168.6,41.6,171.7,44.6z M165.5,81.6c2.7-1.9,4.1-4.4,4.1-7.6v-7.5c0-0.3-0.1-0.4-0.4-0.4
	h-10.1c-4.2,0-7.6,0.9-10.2,2.6c-2.6,1.7-3.8,4.1-3.8,7.2c0,2.8,1,4.9,2.9,6.4c1.9,1.4,4.5,2.2,7.6,2.2
	C159.5,84.4,162.7,83.4,165.5,81.6z"/>
<path class="st0" d="M269.5,45.3c3,3,4.6,7,4.6,12.1V89c0,0.6-0.3,1-1,1h-4.9c-0.6,0-1-0.3-1-1V58.7c0-3.5-1.1-6.4-3.2-8.6
	c-2.1-2.2-4.9-3.4-8.3-3.4c-3.5,0-6.4,1.1-8.5,3.3c-2.2,2.2-3.3,5-3.3,8.5V89c0,0.6-0.3,1-1,1H238c-0.6,0-1-0.3-1-1V42.4
	c0-0.6,0.3-1,1-1h4.9c0.6,0,1,0.3,1,1v4.1c0,0.1,0,0.2,0.1,0.3s0.2,0,0.2-0.1c2.8-4,7.1-5.9,12.9-5.9
	C262.4,40.8,266.4,42.3,269.5,45.3z"/>
<path class="st0" d="M309.6,47.1h-10.8c-0.3,0-0.4,0.1-0.4,0.4v28.3c0,3.1,0.7,5.2,2.1,6.5c1.4,1.2,3.5,1.9,6.5,1.9h2.4
	c0.6,0,1,0.3,1,1v3.9c0,0.6-0.3,1-1,1c-0.8,0.1-2,0.1-3.5,0.1c-4.6,0-8.1-0.9-10.5-2.6s-3.5-4.9-3.5-9.6V47.5c0-0.3-0.1-0.4-0.4-0.4
	h-5.9c-0.6,0-1-0.3-1-1v-3.7c0-0.6,0.3-1,1-1h5.9c0.3,0,0.4-0.1,0.4-0.4V29.9c0-0.6,0.3-1,1-1h4.7c0.6,0,1,0.3,1,1V41
	c0,0.3,0.1,0.4,0.4,0.4h10.8c0.6,0,1,0.3,1,1v3.7C310.6,46.8,310.2,47.1,309.6,47.1z"/>
<path class="st0" d="M365,48.7h-10.3c-0.3,0-0.4,0.1-0.4,0.4v25.4c0,2.7,0.6,4.6,1.8,5.8c1.2,1.2,3.1,1.8,5.7,1.8h2.8
	c0.6,0,1,0.3,1,1V89c0,0.6-0.3,1-1,1c-2,0.1-3.5,0.2-4.4,0.2c-4.9,0-8.5-0.9-11-2.6c-2.5-1.8-3.7-5-3.7-9.7V49.1
	c0-0.3-0.1-0.4-0.4-0.4h-5.8c-0.6,0-1-0.3-1-1V42c0-0.6,0.3-1,1-1h5.8c0.3,0,0.4-0.1,0.4-0.4V29.5c0-0.6,0.3-1,1-1h6.9
	c0.6,0,1,0.3,1,1v11.3c0,0.3,0.1,0.4,0.4,0.4h10.4c0.6,0,1,0.3,1,1v5.7C366,48.4,365.7,48.7,365,48.7z"/>
<path class="st1" d="M378.5,31.8c-1.2-1.2-1.7-2.6-1.7-4.4c0-1.8,0.6-3.3,1.7-4.4c1.2-1.2,2.6-1.7,4.4-1.7s3.3,0.6,4.4,1.7
	c1.2,1.2,1.7,2.6,1.7,4.4c0,1.8-0.6,3.3-1.7,4.4c-1.2,1.2-2.6,1.7-4.4,1.7S379.6,32.9,378.5,31.8z"/>
<path class="st0" d="M378.1,88.9V42.1c0-0.6,0.3-1,1-1h7.3c0.6,0,1,0.3,1,1v46.8c0,0.6-0.3,1-1,1h-7.3
	C378.4,89.9,378.1,89.6,378.1,88.9z"/>
<path class="st0" d="M436,45c3.1,3,4.6,7.1,4.6,12.3v31.6c0,0.6-0.3,1-1,1h-7.3c-0.6,0-1-0.3-1-1V59.2c0-3.2-0.9-5.8-2.8-7.8
	c-1.9-2-4.3-3-7.4-3c-3,0-5.5,1-7.4,3c-1.9,2-2.9,4.5-2.9,7.7V89c0,0.6-0.3,1-1,1h-7.1c-0.6,0-1-0.3-1-1V42.1c0-0.6,0.3-1,1-1h7.3
	c0.6,0,1,0.3,1,1v3.5c0,0.1,0,0.2,0.1,0.3s0.2,0,0.2-0.1c2.7-3.5,6.8-5.3,12.2-5.3C428.8,40.5,432.9,42,436,45z"/>
<path class="st1" d="M454.9,31.8c-1.2-1.2-1.7-2.6-1.7-4.4c0-1.8,0.6-3.3,1.7-4.4c1.2-1.2,2.6-1.7,4.4-1.7s3.3,0.6,4.4,1.7
	c1.2,1.2,1.7,2.6,1.7,4.4c0,1.8-0.6,3.3-1.7,4.4c-1.2,1.2-2.6,1.7-4.4,1.7S456.1,32.9,454.9,31.8z"/>
<path class="st0" d="M454.5,88.9V42.1c0-0.6,0.3-1,1-1h7.3c0.6,0,1,0.3,1,1v46.8c0,0.6-0.3,1-1,1h-7.3
	C454.8,89.9,454.5,89.6,454.5,88.9z"/>
<rect x="326.6" y="5.6" class="st2" width="154.6" height="100"/>
</svg>
