<?xml version="1.0" encoding="utf-8"?>
<!-- Generator: Adobe Illustrator 24.0.2, SVG Export Plug-In . SVG Version: 6.00 Build 0)  -->
<svg version="1.1" id="Layer_1" xmlns="http://www.w3.org/2000/svg" xmlns:xlink="http://www.w3.org/1999/xlink" x="0px" y="0px"
	 viewBox="0 0 486.5 110.3" style="enable-background:new 0 0 486.5 110.3;" xml:space="preserve">
<style type="text/css">
	.st0{fill:#003CFF;}
	.st1{fill:none;stroke:#FF00D4;stroke-width:8;stroke-miterlimit:10;}
</style>
<g>
	<path d="M219.3,41.1h4.9c0.6,0,1,0.3,1,1v46.6c0,0.6-0.3,1-1,1h-4.9c-0.6,0-1-0.3-1-1v-4.1c0-0.1-0.1-0.2-0.2-0.3
		c-0.1-0.1-0.2,0-0.3,0.1c-2.7,4-6.9,5.9-12.8,5.9c-3.1,0-5.9-0.6-8.5-1.9c-2.6-1.2-4.6-3.1-6.1-5.4c-1.5-2.4-2.3-5.2-2.3-8.5V42.1
		c0-0.6,0.3-1,1-1h4.9c0.6,0,1,0.3,1,1v30.4c0,3.6,1,6.5,3.1,8.7c2,2.1,4.8,3.2,8.3,3.2c3.6,0,6.5-1.1,8.7-3.3
		c2.1-2.2,3.2-5,3.2-8.6V42.1C218.3,41.4,218.6,41.1,219.3,41.1z"/>
</g>
<path class="st0" d="M51.8,22.3c0.2,0.2,0.3,0.5,0.3,0.8v9.4c0,0.3-0.1,0.6-0.3,0.8c-0.2,0.2-0.5,0.3-0.8,0.3H33.9
	c-0.3,0-0.5,0.2-0.5,0.5v53.8c0,0.3-0.1,0.6-0.3,0.8c-0.2,0.2-0.5,0.3-0.8,0.3H21c-0.3,0-0.6-0.1-0.8-0.3c-0.2-0.2-0.3-0.5-0.3-0.8
	V34.1c0-0.3-0.2-0.5-0.5-0.5H2.7c-0.3,0-0.6-0.1-0.8-0.3s-0.3-0.5-0.3-0.8v-9.4c0-0.3,0.1-0.6,0.3-0.8S2.4,22,2.7,22H51
	C51.3,21.9,51.6,22,51.8,22.3z"/>
<path class="st0" d="M61.2,88.1c-3.1-1.5-5.6-3.6-7.4-6.3s-2.7-5.8-2.7-9.3V57.4c0-3.4,0.9-6.5,2.7-9.2c1.7-2.6,4.2-4.8,7.4-6.2
	s6.8-2.2,10.9-2.2s7.9,0.7,11,2.2s5.6,3.5,7.4,6.2c1.7,2.6,2.7,5.7,2.7,9.2v15c0,3.5-0.9,6.6-2.7,9.4c-1.7,2.8-4.2,4.8-7.4,6.3
	s-6.8,2.2-11,2.2C68,90.3,64.4,89.6,61.2,88.1z M79.2,79.4c1.8-1.6,2.7-3.8,2.7-6.5V57.4c0-2.7-0.9-4.9-2.7-6.6
	c-1.7-1.7-4.1-2.5-7.1-2.5c-2.9,0-5.2,0.8-7,2.5c-1.7,1.7-2.7,3.9-2.7,6.6v15.4c0,2.7,0.9,4.9,2.7,6.5c1.7,1.6,4.1,2.5,7,2.5
	S77.4,81,79.2,79.4z"/>
<path d="M132.2,41.3c0.5,0.3,0.7,0.7,0.6,1.2l-1.1,4.7c-0.2,0.6-0.6,0.8-1.2,0.6c-1.1-0.4-2.3-0.7-3.7-0.7l-1.2,0.1
	c-3.3,0.1-6.1,1.4-8.2,3.7c-2.2,2.3-3.3,5.3-3.3,8.9v28.3c0,0.6-0.3,1-1,1h-4.9c-0.6,0-1-0.3-1-1V41.5c0-0.6,0.3-1,1-1h4.9
	c0.6,0,1,0.3,1,1v5.9c0,0.2,0,0.3,0.1,0.3s0.2,0,0.2-0.1c1.3-2.4,3.1-4.2,5.1-5.5c2.1-1.3,4.5-2,7.2-2
	C128.9,40.1,130.7,40.5,132.2,41.3z"/>
<path d="M172,44.2c3.1,2.9,4.7,6.8,4.7,11.7v32.2c0,0.6-0.3,1-1,1h-4.9c-0.6,0-1-0.3-1-1v-3.9c0-0.1,0-0.2-0.1-0.3
	c-0.1-0.1-0.2,0-0.3,0.1c-1.6,1.9-3.7,3.4-6.2,4.4c-2.6,1-5.4,1.5-8.5,1.5c-4.5,0-8.3-1.2-11.4-3.5c-3.1-2.3-4.6-5.8-4.6-10.5
	c0-4.8,1.7-8.6,5.2-11.4s8.3-4.2,14.5-4.2h11.1c0.3,0,0.4-0.1,0.4-0.4v-3.6c0-3.3-0.9-5.8-2.7-7.7s-4.7-2.8-8.5-2.8
	c-3.1,0-5.6,0.6-7.5,1.8s-3.1,2.8-3.5,4.9c-0.2,0.6-0.6,0.9-1.2,0.9l-5.2-0.7c-0.7-0.1-1-0.4-0.9-0.8c0.5-3.6,2.4-6.5,5.8-8.7
	c3.3-2.2,7.5-3.4,12.5-3.4C164.4,39.8,168.9,41.2,172,44.2z M165.8,81.2c2.7-1.9,4.1-4.4,4.1-7.6v-7.5c0-0.3-0.1-0.4-0.4-0.4h-10.1
	c-4.2,0-7.6,0.9-10.2,2.6c-2.6,1.7-3.8,4.1-3.8,7.2c0,2.8,1,4.9,2.9,6.4c1.9,1.4,4.5,2.2,7.6,2.2C159.8,84,163,83,165.8,81.2z"/>
<path d="M269.8,44.9c3,3,4.6,7,4.6,12.1v31.6c0,0.6-0.3,1-1,1h-4.9c-0.6,0-1-0.3-1-1V58.3c0-3.5-1.1-6.4-3.2-8.6
	c-2.1-2.2-4.9-3.4-8.3-3.4c-3.5,0-6.4,1.1-8.5,3.3c-2.2,2.2-3.3,5-3.3,8.5v30.5c0,0.6-0.3,1-1,1h-4.9c-0.6,0-1-0.3-1-1V42
	c0-0.6,0.3-1,1-1h4.9c0.6,0,1,0.3,1,1v4.1c0,0.1,0,0.2,0.1,0.3s0.2,0,0.2-0.1c2.8-4,7.1-5.9,12.9-5.9
	C262.7,40.4,266.7,41.9,269.8,44.9z"/>
<path d="M309.9,46.7h-10.8c-0.3,0-0.4,0.1-0.4,0.4v28.3c0,3.1,0.7,5.2,2.1,6.5c1.4,1.2,3.5,1.9,6.5,1.9h2.4c0.6,0,1,0.3,1,1v3.9
	c0,0.6-0.3,1-1,1c-0.8,0.1-2,0.1-3.5,0.1c-4.6,0-8.1-0.9-10.5-2.6s-3.5-4.9-3.5-9.6V47.1c0-0.3-0.1-0.4-0.4-0.4h-5.9
	c-0.6,0-1-0.3-1-1V42c0-0.6,0.3-1,1-1h5.9c0.3,0,0.4-0.1,0.4-0.4V29.5c0-0.6,0.3-1,1-1h4.7c0.6,0,1,0.3,1,1v11.1
	c0,0.3,0.1,0.4,0.4,0.4h10.8c0.6,0,1,0.3,1,1v3.7C310.9,46.4,310.5,46.7,309.9,46.7z"/>
<path d="M365.3,48.3H355c-0.3,0-0.4,0.1-0.4,0.4v25.4c0,2.7,0.6,4.6,1.8,5.8c1.2,1.2,3.1,1.8,5.7,1.8h2.8c0.6,0,1,0.3,1,1v5.9
	c0,0.6-0.3,1-1,1c-2,0.1-3.5,0.2-4.4,0.2c-4.9,0-8.5-0.9-11-2.6c-2.5-1.8-3.7-5-3.7-9.7V48.7c0-0.3-0.1-0.4-0.4-0.4h-5.8
	c-0.6,0-1-0.3-1-1v-5.7c0-0.6,0.3-1,1-1h5.8c0.3,0,0.4-0.1,0.4-0.4V29.1c0-0.6,0.3-1,1-1h6.9c0.6,0,1,0.3,1,1v11.3
	c0,0.3,0.1,0.4,0.4,0.4h10.4c0.6,0,1,0.3,1,1v5.7C366.3,48,366,48.3,365.3,48.3z"/>
<path class="st0" d="M378.8,31.4c-1.2-1.2-1.7-2.6-1.7-4.4c0-1.8,0.6-3.3,1.7-4.4c1.2-1.2,2.6-1.7,4.4-1.7s3.3,0.6,4.4,1.7
	c1.2,1.2,1.7,2.6,1.7,4.4c0,1.8-0.6,3.3-1.7,4.4c-1.2,1.2-2.6,1.7-4.4,1.7S379.9,32.5,378.8,31.4z"/>
<path d="M378.4,88.5V41.7c0-0.6,0.3-1,1-1h7.3c0.6,0,1,0.3,1,1v46.8c0,0.6-0.3,1-1,1h-7.3C378.7,89.5,378.4,89.2,378.4,88.5z"/>
<path d="M436.3,44.6c3.1,3,4.6,7.1,4.6,12.3v31.6c0,0.6-0.3,1-1,1h-7.3c-0.6,0-1-0.3-1-1V58.8c0-3.2-0.9-5.8-2.8-7.8
	c-1.9-2-4.3-3-7.4-3c-3,0-5.5,1-7.4,3c-1.9,2-2.9,4.5-2.9,7.7v29.9c0,0.6-0.3,1-1,1H403c-0.6,0-1-0.3-1-1V41.7c0-0.6,0.3-1,1-1h7.3
	c0.6,0,1,0.3,1,1v3.5c0,0.1,0,0.2,0.1,0.3s0.2,0,0.2-0.1c2.7-3.5,6.8-5.3,12.2-5.3C429.1,40.1,433.2,41.6,436.3,44.6z"/>
<path class="st0" d="M455.2,31.4c-1.2-1.2-1.7-2.6-1.7-4.4c0-1.8,0.6-3.3,1.7-4.4c1.2-1.2,2.6-1.7,4.4-1.7s3.3,0.6,4.4,1.7
	c1.2,1.2,1.7,2.6,1.7,4.4c0,1.8-0.6,3.3-1.7,4.4c-1.2,1.2-2.6,1.7-4.4,1.7S456.4,32.5,455.2,31.4z"/>
<path d="M454.8,88.5V41.7c0-0.6,0.3-1,1-1h7.3c0.6,0,1,0.3,1,1v46.8c0,0.6-0.3,1-1,1h-7.3C455.1,89.5,454.8,89.2,454.8,88.5z"/>
<rect x="326.9" y="5.2" class="st1" width="154.6" height="100"/>
</svg>
